<svg width="150" height="155" viewBox="0 0 150 155" fill="none" xmlns="http://www.w3.org/2000/svg">
<g clip-path="url(#clip0_1_6)">
<path d="M150 74.7736C149.81 93.7159 143.81 110.216 131.715 124.346C121.233 136.603 108.095 144.735 92.2765 148.291C83.6204 150.235 74.8931 150.543 66.071 149.5C58.3398 148.575 51.0117 146.418 43.9208 143.312C43.2093 143.004 42.1422 142.98 41.407 143.265C32.49 146.821 23.6204 150.472 14.7508 154.075C14.4188 154.218 14.1105 154.336 13.7785 154.455C12.2844 155.071 10.7904 155.403 9.4386 154.194C8.08682 152.985 8.30026 151.373 8.65599 149.879C9.62832 145.635 10.7192 141.392 11.7864 137.148C13.0196 132.241 14.3003 127.357 15.4386 122.426C15.5809 121.786 15.1777 120.885 14.7508 120.292C10.4346 114.223 6.92476 107.751 4.43464 100.71C0.0947231 88.5476 -1.04362 76.1012 0.924763 63.3939C3.50974 46.7749 10.8141 32.5504 22.8852 20.8863C30.569 13.4658 39.5097 8.01308 49.5888 4.40953C57.7706 1.4935 66.237 -0.0949047 74.8694 -7.44604e-05C91.8734 0.165878 107.383 5.19188 120.901 15.6232C134.609 26.1968 143.431 40.0183 147.628 56.8269C149.122 62.8249 149.881 68.9178 149.976 74.7736H150ZM75.0117 123.374C83.9999 123.374 93.0117 123.398 102 123.374C108.474 123.35 114.024 117.826 114.024 111.378C114.047 97.1535 114.047 82.9527 114 68.7281C114 67.282 113.715 65.741 113.17 64.3896C111.225 59.5059 107.502 56.8506 102.237 56.5187C101.028 56.4476 100.553 56.0209 100.601 54.8118C100.672 53.2708 100.696 51.7298 100.601 50.1888C100.387 47.0357 100.601 43.7167 99.7232 40.7295C96.6402 29.99 89.4307 23.5415 78.2844 21.8583C65.5967 19.938 53.241 28.2593 50.0631 40.6821C48.8773 45.3288 49.0908 50.0466 49.1856 54.7644C49.2093 56.0446 48.9485 56.495 47.5967 56.5187C41.3121 56.7084 36.1896 61.9715 36.1896 68.2066C36.1659 82.6682 36.1659 97.1298 36.1896 111.591C36.1896 117.945 41.6678 123.35 48.0473 123.374C57.0354 123.374 66.0473 123.374 75.0354 123.374H75.0117Z" fill="url(#paint0_linear_1_6)"/>
<path d="M74.8458 57.4197C70.2213 57.4197 65.5968 57.396 60.9723 57.4197C59.6443 57.4197 59.0514 56.9693 59.1225 55.5942C59.2648 51.7773 59.004 47.913 59.5494 44.1435C60.6403 36.4859 66.4506 31.3651 74.253 31.0095C81.415 30.6776 87.913 34.8501 90.0237 42.1994C90.6877 44.5465 90.6877 47.0832 90.8538 49.5488C90.9723 51.4217 90.8775 53.3183 90.8538 55.2149C90.8538 57.1826 90.5929 57.396 88.5771 57.396C84 57.396 79.4229 57.396 74.8458 57.396V57.4197Z" fill="#15B4EE"/>
<path d="M71.7154 90.3495C71.7154 83.7825 71.7154 77.2392 71.7154 70.6722C71.7154 68.2541 72.8538 66.879 74.8933 66.7605C76.7194 66.6657 77.9526 67.5428 78.3795 69.3209C78.5218 69.8899 78.5455 70.5063 78.5455 71.099C78.5455 84.067 78.5455 97.035 78.5455 110.003C78.5455 111.544 78.2372 112.895 76.838 113.749C74.4664 115.171 71.7629 113.63 71.6917 110.785C71.6206 107.514 71.6917 104.218 71.6917 100.947C71.6917 97.4144 71.6917 93.8819 71.6917 90.3732L71.7154 90.3495Z" fill="#12CBF4"/>
<path d="M59.7866 90.4206C59.7866 87.149 59.7866 83.8773 59.7866 80.582C59.7866 78.0453 60.9486 76.8362 63.1779 76.8362C65.3597 76.8362 66.5692 78.1638 66.5929 80.6057C66.5929 87.2675 66.5929 93.9056 66.5929 100.567C66.5929 102.938 65.2411 104.313 63.083 104.313C61.1146 104.313 59.834 102.938 59.7866 100.686C59.7392 97.2721 59.7866 93.8345 59.7866 90.4206Z" fill="#12CBF4"/>
<path d="M90.5454 91.0133C90.5454 93.7397 90.5454 96.4898 90.5454 99.2161C90.5217 101.516 89.2411 102.867 87.1541 102.891C85.0672 102.915 83.7154 101.587 83.7154 99.2635C83.668 93.7871 83.668 88.3344 83.7154 82.8579C83.7154 80.4397 85.0909 78.9699 87.1304 78.9699C89.2411 78.9699 90.5454 80.4635 90.5691 82.9765C90.5691 85.6554 90.5691 88.3344 90.5691 91.037L90.5454 91.0133Z" fill="#12CBF4"/>
<path d="M55.5889 90.6577C55.5889 91.7482 55.6364 92.8388 55.5889 93.9293C55.4704 95.8259 54.1423 97.0587 52.3162 97.1299C50.3715 97.201 48.9723 96.0393 48.8538 94.0242C48.7352 91.9379 48.7352 89.8516 48.8538 87.7654C48.9961 85.6317 50.419 84.47 52.3874 84.5648C54.3557 84.6834 55.5652 85.9873 55.6127 88.0973C55.6127 88.9507 55.6127 89.7805 55.6127 90.634L55.5889 90.6577Z" fill="#12CBF4"/>
<path d="M95.004 90.7051C95.004 90.0176 95.004 89.3301 95.004 88.6188C95.0514 86.5563 96.2135 85.442 98.253 85.442C100.316 85.442 101.549 86.5563 101.597 88.5951C101.644 90.1361 101.644 91.6534 101.597 93.1944C101.526 95.1621 100.245 96.2764 98.1581 96.2527C96.2846 96.2527 95.0989 95.091 95.004 93.2181C94.9566 92.3883 95.004 91.5349 95.004 90.7051Z" fill="#12CBF4"/>
</g>
<defs>
<linearGradient id="paint0_linear_1_6" x1="74.9961" y1="-0.00408936" x2="74.9961" y2="155.009" gradientUnits="userSpaceOnUse">
<stop stop-color="#1AC4EF"/>
<stop offset="1" stop-color="#0788EB"/>
</linearGradient>
<clipPath id="clip0_1_6">
<rect width="150" height="155" fill="white"/>
</clipPath>
</defs>
</svg>
